<?xml version="1.0" standalone="no"?>
<!DOCTYPE svg PUBLIC "-//W3C//DTD SVG 20010904//EN"
 "http://www.w3.org/TR/2001/REC-SVG-20010904/DTD/svg10.dtd">
<svg version="1.0" xmlns="http://www.w3.org/2000/svg"
 width="32.000000pt" height="32.000000pt" viewBox="0 0 32.000000 32.000000"
 preserveAspectRatio="xMidYMid meet">

<g transform="translate(0.000000,32.000000) scale(0.100000,-0.100000)"
fill="#000000" stroke="none">
<path d="M40 169 c0 -85 3 -114 15 -125 13 -14 17 -14 30 0 8 8 15 19 15 25 0
7 33 11 90 11 l90 0 0 100 0 100 -120 0 -120 0 0 -111z m220 11 l0 -80 -76 0
c-74 0 -104 -11 -104 -39 0 -6 -4 -11 -10 -11 -6 0 -10 42 -10 105 l0 105 100
0 100 0 0 -80z"/>
<path d="M110 200 c0 -5 23 -10 50 -10 28 0 50 5 50 10 0 6 -22 10 -50 10 -27
0 -50 -4 -50 -10z"/>
<path d="M110 160 c0 -5 16 -10 35 -10 19 0 35 5 35 10 0 6 -16 10 -35 10 -19
0 -35 -4 -35 -10z"/>
</g>
</svg>
