<?xml version="1.0" standalone="no"?>
<!DOCTYPE svg PUBLIC "-//W3C//DTD SVG 20010904//EN"
 "http://www.w3.org/TR/2001/REC-SVG-20010904/DTD/svg10.dtd">
<svg version="1.0" xmlns="http://www.w3.org/2000/svg"
 width="50.000000pt" height="50.000000pt" viewBox="0 0 50.000000 50.000000"
 preserveAspectRatio="xMidYMid meet">

<g transform="translate(0.000000,50.000000) scale(0.100000,-0.100000)"
fill="#000000" stroke="none">
<path d="M165 370 c28 -29 31 -30 122 -30 l93 0 0 -75 0 -75 -27 0 -28 0 43
-42 42 -43 42 43 43 42 -28 0 -27 0 0 83 c0 74 -3 86 -23 105 -21 20 -34 22
-152 22 l-129 0 29 -30z"/>
<path d="M45 350 l-39 -40 27 0 27 0 0 -83 c0 -74 3 -86 23 -105 21 -20 34
-22 152 -22 l129 0 -29 30 c-28 29 -31 30 -122 30 l-93 0 0 75 c0 75 0 75 27
75 l27 0 -39 40 c-21 22 -42 40 -45 40 -3 0 -24 -18 -45 -40z"/>
</g>
</svg>
